HIERARCHY
ROOT Hips
{
	OFFSET	0	0	0
	CHANNELS 6  Xposition Yposition Zposition Xrotation Yrotation Zrotation
	JOINT Spine
	{
		OFFSET	0	0.0603846	0.012164
		CHANNELS 6  Xrotation Yrotation Zrotation Xposition Yposition Zposition
		JOINT Spine1
		{
			OFFSET	0	0.103734	-0.0185239
			CHANNELS 6  Xrotation Yrotation Zrotation Xposition Yposition Zposition
			JOINT Spine2
			{
				OFFSET	0	0.0786338	0.00842836
				CHANNELS 6  Xrotation Yrotation Zrotation Xposition Yposition Zposition
				JOINT Spine3
				{
					OFFSET	0	0.0941013	0.027971
					CHANNELS 6  Xrotation Yrotation Zrotation Xposition Yposition Zposition
					JOINT Spine4
					{
						OFFSET	0	0.1393	-0.0142634
						CHANNELS 3  Xrotation Yrotation Zrotation
						JOINT Neck
						{
							OFFSET	0	0.0665007	-0.0465875
							CHANNELS 3  Xrotation Yrotation Zrotation
							JOINT Head
							{
								OFFSET	0	0.0798379	-0.0238958
								CHANNELS 3  Xrotation Yrotation Zrotation
								End Site
								{
									OFFSET	0	0.16653	-0.00805788
								}
							}
						}
					}
					JOINT LeftShoulder
					{
						OFFSET	-0.0400116	0.169308	-0.0798379
						CHANNELS 3  Xrotation Yrotation Zrotation
						JOINT LeftArm
						{
							OFFSET	-0.0868785	-0.0238958	0.0306572
							CHANNELS 3  Xrotation Yrotation Zrotation
							JOINT LeftForeArm
							{
								OFFSET	-0.24701	-0.0112739	0.0176313
								CHANNELS 3  Xrotation Yrotation Zrotation
								JOINT LeftHand
								{
									OFFSET	-0.200677	-0.0138679	0.0143241
									CHANNELS 3  Xrotation Yrotation Zrotation
									End Site
									{
										OFFSET	-0.0732369	-0.0050611	0.00522723
									}
								}
							}
						}
					}
					JOINT RightShoulder
					{
						OFFSET	0.0400116	0.169308	-0.0798379
						CHANNELS 3  Xrotation Yrotation Zrotation
						JOINT RightArm
						{
							OFFSET	0.0868785	-0.0238958	0.0306572
							CHANNELS 3  Xrotation Yrotation Zrotation
							JOINT RightForeArm
							{
								OFFSET	0.24701	-0.0112739	0.0176313
								CHANNELS 3  Xrotation Yrotation Zrotation
								JOINT RightHand
								{
									OFFSET	0.200677	-0.0138679	0.0143241
									CHANNELS 3  Xrotation Yrotation Zrotation
									End Site
									{
										OFFSET	0.0732369	-0.0050611	0.00522723
									}
								}
							}
						}
					}
				}
			}
		}
	}
	JOINT LeftUpLeg
	{
		OFFSET	-0.10448	-0.0301923	-0.006082
		CHANNELS 3  Xrotation Yrotation Zrotation
		JOINT LeftLeg
		{
			OFFSET	0.00166856	-0.403236	-0.00630347
			CHANNELS 3  Xrotation Yrotation Zrotation
			JOINT LeftFoot
			{
				OFFSET	-0.0201155	-0.370793	0.0318882
				CHANNELS 3  Xrotation Yrotation Zrotation
				JOINT LeftToeBase
				{
					OFFSET	0	-0.046326	-0.123042
					CHANNELS 3  Xrotation Yrotation Zrotation
					End Site
					{
						OFFSET	0	-0.0185304	-0.0741216
					}
				}
			}
		}
	}
	JOINT RightUpLeg
	{
		OFFSET	0.10448	-0.0301923	-0.006082
		CHANNELS 3  Xrotation Yrotation Zrotation
		JOINT RightLeg
		{
			OFFSET	-0.00166856	-0.403236	-0.00630347
			CHANNELS 3  Xrotation Yrotation Zrotation
			JOINT RightFoot
			{
				OFFSET	0.0201155	-0.370793	0.0318882
				CHANNELS 3  Xrotation Yrotation Zrotation
				JOINT RightToeBase
				{
					OFFSET	0	-0.046326	-0.123042
					CHANNELS 3  Xrotation Yrotation Zrotation
					End Site
					{
						OFFSET	0	-0.0185304	-0.0741216
					}
				}
			}
		}
	}
}
MOTION
Frames: 5
Frame Time: 0.02
 -0.00722221 0.882278 1.29584 166.052 -169.362 174.693 14.2385 0.359174 0.938475 0 -0.00681425 0 8.52704 0.718176 1.56422 0 -0.00681425 0 8.50742 1.43635 1.56459 0 -0.00681425 0 174.195 173.488 -179.055 0 -0.00681425 0 2.84884 -0.0155476 -0.312432 163.983 -179.532 176.924 177.009 -179.044 177.118 8.76885 4.76132 16.5059 65.388 -88.8462 124.147 97.6079 -9.50672 128.211 -0 -20.3432 -17.8285 10.4853 -5.90597 -19.6955 96.1784 88.2613 -149.785 87.8065 175.615 -59.2064 -0 -13.7856 24.5879 12.1329 11.7566 1.16342 0.488801 -0.205636 -4.61456 2.64419 5.21917 17.5134 163.234 180 -180 19.727 -5.0431 5.30909 174.899 179.948 -175.64 6.46256 5.73737 -18.1753 156.639 180 -180
 -0.00660951 0.884728 1.29168 166.914 -169.342 175.108 14.0784 0.350664 0.913603 0 -0.00760118 0 8.43177 0.701169 1.52276 0 -0.00760118 0 8.41312 1.40234 1.5231 0 -0.00760118 0 174.264 173.622 -179.081 0 -0.00760118 0 2.81676 -0.0149653 -0.304161 162.85 -179.893 176.606 178.977 -178.359 176.758 9.17666 5.23084 17.2246 68.9493 -89.1346 128.044 97.6148 -9.54942 128.169 -0 -19.8651 -17.9461 10.457 -6.65815 -19.4684 92.0485 88.0288 -146.186 87.822 175.636 -59.3394 -0 -14.3688 25.7099 11.116 12.0063 0.947143 0.408243 -0.411748 -4.63447 2.25737 5.44157 17.4736 162.755 180 -180 18.0203 -5.38563 5.09161 176.011 179.966 -175.745 5.57629 5.7425 -18.595 156.556 180 -180
 -0.00569229 0.885973 1.28806 167.661 -169.258 175.41 13.912 0.340678 0.897748 0 -0.00811189 0 8.33262 0.681207 1.49633 0 -0.00811189 0 8.31482 1.36241 1.49664 0 -0.00811189 0 174.335 173.781 -179.097 0 -0.00811189 0 2.78343 -0.0145317 -0.298891 162.225 179.79 176.74 1.25905 -2.29369 -3.1186 9.45109 5.57292 17.7009 63.9605 -89.0563 123.277 97.7183 -9.66266 128.179 -0 -19.5804 -18.0012 10.4761 -7.22854 -19.3745 97.6443 87.9235 -152.099 87.7995 175.686 -59.4206 -0 -14.9923 26.6794 10.2276 12.1707 0.786452 0.312399 -0.432253 -4.64068 2.21769 5.56069 17.4346 162.343 180 -180 16.5271 -5.76489 4.95566 177.04 -179.961 -175.919 5.12486 5.76232 -18.9605 156.484 180 -180
 -0.00541311 0.886479 1.28621 168.197 -169.321 175.678 13.7513 0.328452 0.878987 0 -0.00849217 0 8.23698 0.656766 1.46505 0 -0.00849217 0 8.22018 1.31353 1.46534 0 -0.00849217 0 174.405 173.975 -179.116 0 -0.00849217 0 2.75122 -0.0140635 -0.292653 161.479 179.425 176.952 3.51349 -2.78895 -2.90763 9.5269 5.4988 17.8661 59.153 -88.9028 118.3 97.8316 -9.77863 128.183 -0 -19.3885 -18.0279 10.4397 -7.32223 -19.2807 102.616 87.8783 -156.58 87.797 175.688 -59.6221 -0 -15.5584 27.4452 9.59923 11.9982 0.581016 0.315242 -0.365554 -4.52809 2.32687 5.41306 17.3311 161.985 180 -180 15.5177 -6.13275 4.85642 177.924 -179.871 -176.079 4.64198 5.75694 -19.1741 156.425 180 -180
 -0.00497202 0.886701 1.28491 168.644 -169.52 175.97 13.5734 0.312315 0.859474 0 -0.00880751 0 8.13126 0.624506 1.43252 0 -0.00880751 0 8.11564 1.24901 1.43277 0 -0.00880751 0 174.482 174.233 -179.136 0 -0.00880751 0 2.71559 -0.0135734 -0.286165 160.809 179.063 177.273 5.71077 -3.1521 -2.5829 9.6004 4.95765 18.1207 65.3028 -88.9302 124.393 98.0817 -9.87077 128.172 -0 -19.3672 -18.0957 10.3965 -6.89923 -19.2927 102.433 87.9183 -155.698 87.8467 175.672 -59.7908 -0 -16.0819 27.8364 9.20367 11.7683 0.321464 0.237632 -0.214339 -4.39154 2.49525 5.26876 17.2574 161.673 180 -180 14.6325 -6.504 4.69744 178.766 -179.787 -176.212 4.27021 5.72928 -19.3487 156.372 180 -180
